<?xml version="1.0" encoding="UTF-8"?>
<svg xmlns="http://www.w3.org/2000/svg" version="1.1" viewBox="0 0 566.93 130.77">
  <defs>
    <style>
      .cls-1 {
        fill: #fff;
      }
    </style>
  </defs>
  <!-- Generator: Adobe Illustrator 28.6.0, SVG Export Plug-In . SVG Version: 1.2.0 Build 709)  -->
  <g>
    <g id="Lager_1">
      <g>
        <path class="cls-1" d="M509.63,119.68c-13.49,5.86-28.15,8.92-42.83,8.9-14.68.02-29.34-3.04-42.83-8.9-13.48-5.87-25.8-14.5-36.03-25.24,4.78,5.68,10.25,10.77,16.16,15.31,5.94,4.5,12.38,8.37,19.17,11.49,6.78,3.15,13.93,5.5,21.24,7.12,7.32,1.59,14.8,2.38,22.29,2.41,7.49-.03,14.98-.82,22.29-2.41,7.31-1.62,14.46-3.97,21.24-7.12,6.79-3.12,13.22-6.99,19.17-11.49,5.91-4.54,11.39-9.63,16.16-15.31-10.23,10.74-22.54,19.37-36.03,25.24Z"/>
        <path class="cls-1" d="M430.54,104.81c5.63,2.67,11.59,4.64,17.67,6.01,6.1,1.34,12.34,2,18.59,2.04,6.24-.04,12.49-.69,18.59-2.04,6.09-1.37,12.04-3.35,17.67-6.01,11.28-5.27,21.34-13.06,29.09-22.63-8.65,8.75-18.86,15.79-30.02,20.55-5.59,2.35-11.38,4.21-17.32,5.39-5.92,1.21-11.97,1.84-18.01,1.82-6.05.02-12.09-.6-18.01-1.82-5.93-1.18-11.73-3.04-17.32-5.39-11.17-4.76-21.37-11.8-30.02-20.55,7.75,9.57,17.81,17.36,29.09,22.63Z"/>
        <path class="cls-1" d="M437.83,88.34c4.47,2.2,9.23,3.79,14.09,4.93,4.87,1.1,9.88,1.63,14.87,1.67,5-.04,10-.57,14.87-1.67,4.86-1.14,9.62-2.74,14.09-4.93,8.96-4.31,16.9-10.67,22.83-18.46-7.06,6.76-15.18,12.19-24,15.86-4.42,1.8-8.97,3.26-13.64,4.15-4.66.94-9.4,1.43-14.15,1.4-4.75.03-9.5-.46-14.15-1.4-4.67-.9-9.22-2.35-13.64-4.15-8.82-3.67-16.94-9.1-24-15.86,5.93,7.78,13.87,14.15,22.83,18.46Z"/>
        <path class="cls-1" d="M466.8,77.04c7.51,0,15.03-1.77,21.69-5.13,6.65-3.36,12.47-8.29,16.58-14.29-5.47,4.77-11.5,8.59-18,11.15-6.48,2.57-13.37,3.88-20.27,3.89-6.9,0-13.79-1.31-20.27-3.89-6.49-2.56-12.53-6.38-18-11.15,4.11,6,9.93,10.93,16.58,14.29,6.66,3.37,14.18,5.14,21.69,5.13Z"/>
        <polygon class="cls-1" points="84.12 0 66.79 0 66.94 38.21 67.23 76.56 45.02 38.36 22.66 0 0 0 0 103.67 17.33 103.67 17.18 65.61 16.88 27.69 38.95 65.61 61.31 103.67 84.12 103.67 84.12 0"/>
        <rect class="cls-1" x="95.71" width="18.96" height="16.14"/>
        <path class="cls-1" d="M95.71,111.37c0,4.89-1.92,6.66-6.96,6.66h-5.03v12.74h11.11c12.88,0,19.84-6.52,19.84-18.07V23.25h-18.96v88.12Z"/>
        <path class="cls-1" d="M161.61,21.18c-23.55,0-39.54,15.7-39.54,42.35s15.85,42.06,39.54,42.06,39.69-15.7,39.69-42.06-16-42.35-39.69-42.35ZM161.61,91.67c-12.44,0-20.59-9.63-20.59-28.29s8.15-28.29,20.59-28.29,20.73,9.77,20.73,28.29-8.15,28.29-20.73,28.29Z"/>
        <path class="cls-1" d="M227.82,35.99v-12.74h-18.96v80.42h18.96v-54.94c4-6.52,11.85-9.92,20.29-9.92,1.93,0,3.85.15,5.78.44v-17.33h-1.93c-10.66,0-18.96,5.03-24.14,14.07Z"/>
        <path class="cls-1" d="M316.44,36.14c-5.77-9.33-14.81-14.51-25.77-14.51-20.73,0-34.8,16.29-34.8,41.91s13.92,41.76,34.8,41.76c10.96,0,19.99-5.03,25.77-14.36v12.74h18.96V0h-18.96v36.14ZM295.41,91.67c-12.59,0-20.59-9.77-20.59-28.29s8-28.14,20.59-28.14,21.03,9.77,21.03,28.29-8.29,28.14-21.03,28.14Z"/>
        <path class="cls-1" d="M404.34,33.67c0-9.26-9-11.78-16.9-13.92-6.22-1.75-11.72-3.24-11.72-7.64,0-3.11,2.78-5.44,8.61-5.44,6.34,0,10.36,3.24,11.33,9.26h8.16C402.66,5.7,395.41,0,384.08,0c-10.42,0-16.96,5.18-16.96,12.82,0,8.94,8.42,11.46,16.12,13.53,6.54,1.75,12.56,3.24,12.56,8.03,0,3.37-3.17,5.83-9.45,5.83-6.6,0-10.23-3.11-11.14-9.78h-8.55c1.17,10.62,8.16,16.45,20,16.45,11.01,0,17.67-5.31,17.67-13.21Z"/>
        <path class="cls-1" d="M420.1,46.81c4.34,0,8.03-1.88,10.49-4.86v4.14h8.29V10.94h-8.29v25.96c-1.62,2.27-4.4,3.82-7.57,3.82-4.27,0-7.12-2.53-7.12-7.12V10.94h-8.29v23.95c0,7.19,4.92,11.91,12.5,11.91Z"/>
        <path class="cls-1" d="M451.52,22.08c1.75-2.85,5.18-4.34,8.87-4.34.84,0,1.68.07,2.53.2v-7.58h-.84c-4.66,0-8.29,2.2-10.55,6.15v-5.57h-8.29v35.15h8.29v-24.02Z"/>
        <polygon class="cls-1" points="486.52 46.1 499.73 10.94 491.38 10.94 486.65 24.47 481.99 37.94 477.39 24.47 472.73 10.94 463.99 10.94 477.2 46.1 486.52 46.1"/>
        <path class="cls-1" d="M515.55,46.94c8.8,0,14.76-5.18,16.31-13.98h-7.83c-1.16,5.31-4.14,8.03-8.42,8.03-5.24,0-8.61-4.08-8.87-11.65h25.51v-.65c0-11.91-7.12-18.65-16.64-18.65-10.03,0-17.03,7.12-17.03,18.52s6.86,18.39,16.96,18.39ZM515.55,15.99c4.27,0,7.32,2.91,8.42,8.42h-16.9c1.04-5.44,4.14-8.42,8.48-8.42Z"/>
        <path class="cls-1" d="M558.51,10.94l-9,25.18-9.58-25.18h-8.87l14.37,36.58-.39,1.1c-1.04,2.2-2.33,3.11-4.73,3.11h-4.6v6.22h6.09c4.79,0,8.03-2.07,9.97-6.86l15.15-40.14h-8.42Z"/>
      </g>
    </g>
  </g>
</svg>